<?xml version="1.0" encoding="UTF-8"?><svg id="Layer_2" xmlns="http://www.w3.org/2000/svg" viewBox="0 0 742.8 190.01"><defs><style>.cls-1{fill:#005ed4;}</style></defs><g id="Layer_1-2"><g><path class="cls-1" d="m72.75,9.06H19.59C8.65,9.06,0,17.71,0,28.65v140.42c0,10.94,8.65,19.59,19.59,19.59s19.59-8.65,19.59-19.59v-35.36h29.76c39.94,0,71.99-21.37,71.99-62.58v-.51c0-36.38-25.69-61.56-68.17-61.56Zm28.49,62.83c0,15.26-11.45,26.97-31.03,26.97h-31.04v-54.44h30.27c19.59,0,31.8,9.41,31.8,26.96v.51Z"/><path class="cls-1" d="m171.71,49.26c-10.68,0-19.33,8.65-19.33,19.33v100.74c0,10.68,8.65,19.33,19.33,19.33s19.33-8.65,19.33-19.33v-100.74c0-10.68-8.65-19.33-19.33-19.33Z"/><path class="cls-1" d="m290.76,48.24c-19.59,0-31.03,10.43-39.94,21.88v-1.53c0-10.68-8.65-19.33-19.33-19.33s-19.33,8.65-19.33,19.33v100.74c0,10.68,8.65,19.33,19.33,19.33s19.33-8.65,19.33-19.33v-58.25c0-18.32,9.41-27.73,24.17-27.73s23.4,9.41,23.4,27.73v58.25c0,10.68,8.65,19.33,19.33,19.33s19.33-8.65,19.33-19.33v-70.46c0-31.29-17.04-50.62-46.3-50.62Z"/><path class="cls-1" d="m376.49,49.26c-10.68,0-19.33,8.65-19.33,19.33v100.74c0,10.68,8.65,19.33,19.33,19.33s19.33-8.65,19.33-19.33v-100.74c0-10.68-8.65-19.33-19.33-19.33Z"/><path class="cls-1" d="m696.5,48.24c-19.59,0-31.03,10.43-39.94,21.88v-1.53c0-10.68-8.65-19.33-19.33-19.33s-19.33,8.65-19.33,19.33v100.74c0,10.68,8.65,19.33,19.33,19.33s19.33-8.65,19.33-19.33v-58.25c0-18.32,9.41-27.73,24.17-27.73s23.4,9.41,23.4,27.73v58.25c0,10.68,8.65,19.33,19.33,19.33s19.33-8.65,19.33-19.33v-70.46c0-31.29-17.04-50.62-46.3-50.62Z"/><circle class="cls-1" cx="171.71" cy="18.6" r="18.6"/><circle class="cls-1" cx="376.38" cy="18.6" r="18.6" transform="translate(215.16 359.21) rotate(-67.5)"/><path class="cls-1" d="m507.75,6.31c-50.73,0-91.85,41.12-91.85,91.85s41.12,91.85,91.85,91.85,91.85-41.12,91.85-91.85S558.48,6.31,507.75,6.31Zm0,147.84c-30.92,0-55.99-25.07-55.99-55.99s25.07-55.99,55.99-55.99,55.99,25.07,55.99,55.99-25.07,55.99-55.99,55.99Z"/></g></g></svg>